<mxfile host="app.diagrams.net" modified="2021-08-03T08:07:07.150Z" agent="5.0 (Windows NT 10.0; Win64; x64) AppleWebKit/537.36 (KHTML, like Gecko) Chrome/92.0.4515.107 Safari/537.36" etag="yx4stwYcU_IU4c9TAGhZ" version="14.9.3" type="github">
  <diagram id="EcCNOCLpawYmxYhZWg3b" name="Page-1">
    <mxGraphModel dx="2272" dy="794" grid="1" gridSize="10" guides="1" tooltips="1" connect="1" arrows="1" fold="1" page="1" pageScale="1" pageWidth="850" pageHeight="1100" math="0" shadow="0">
      <root>
        <mxCell id="0" />
        <mxCell id="1" parent="0" />
        <mxCell id="wdhYre6bCpWcd9Iw9CnV-87" value="application.txs" style="swimlane;fontStyle=0;childLayout=stackLayout;horizontal=1;startSize=26;horizontalStack=0;resizeParent=1;resizeParentMax=0;resizeLast=0;collapsible=1;marginBottom=0;align=center;fontSize=14;fillColor=#fa6800;strokeColor=#C73500;fontColor=#000000;" parent="1" vertex="1">
          <mxGeometry x="-820" y="20" width="290" height="176" as="geometry">
            <mxRectangle x="-70" y="90" width="120" height="26" as="alternateBounds" />
          </mxGeometry>
        </mxCell>
        <mxCell id="wdhYre6bCpWcd9Iw9CnV-88" value="ConnectedFilterDrawer" style="text;strokeColor=none;fillColor=none;spacingLeft=4;spacingRight=4;overflow=hidden;rotatable=0;points=[[0,0.5],[1,0.5]];portConstraint=eastwest;fontSize=12;" parent="wdhYre6bCpWcd9Iw9CnV-87" vertex="1">
          <mxGeometry y="26" width="290" height="30" as="geometry" />
        </mxCell>
        <mxCell id="wdhYre6bCpWcd9Iw9CnV-89" value="ConnectedHeader" style="text;strokeColor=none;fillColor=none;spacingLeft=4;spacingRight=4;overflow=hidden;rotatable=0;points=[[0,0.5],[1,0.5]];portConstraint=eastwest;fontSize=12;" parent="wdhYre6bCpWcd9Iw9CnV-87" vertex="1">
          <mxGeometry y="56" width="290" height="30" as="geometry" />
        </mxCell>
        <mxCell id="wdhYre6bCpWcd9Iw9CnV-90" value="ConnectedPageContainer" style="text;strokeColor=none;fillColor=none;spacingLeft=4;spacingRight=4;overflow=hidden;rotatable=0;points=[[0,0.5],[1,0.5]];portConstraint=eastwest;fontSize=12;" parent="wdhYre6bCpWcd9Iw9CnV-87" vertex="1">
          <mxGeometry y="86" width="290" height="30" as="geometry" />
        </mxCell>
        <mxCell id="wdhYre6bCpWcd9Iw9CnV-114" value="ConnectedSnackbar" style="text;strokeColor=none;fillColor=none;spacingLeft=4;spacingRight=4;overflow=hidden;rotatable=0;points=[[0,0.5],[1,0.5]];portConstraint=eastwest;fontSize=12;" parent="wdhYre6bCpWcd9Iw9CnV-87" vertex="1">
          <mxGeometry y="116" width="290" height="30" as="geometry" />
        </mxCell>
        <mxCell id="wdhYre6bCpWcd9Iw9CnV-115" value="drawerWidthInit" style="text;strokeColor=none;fillColor=none;spacingLeft=4;spacingRight=4;overflow=hidden;rotatable=0;points=[[0,0.5],[1,0.5]];portConstraint=eastwest;fontSize=12;" parent="wdhYre6bCpWcd9Iw9CnV-87" vertex="1">
          <mxGeometry y="146" width="290" height="30" as="geometry" />
        </mxCell>
        <mxCell id="wdhYre6bCpWcd9Iw9CnV-118" value="connected-filter-drawer.ts" style="swimlane;childLayout=stackLayout;horizontal=1;startSize=30;horizontalStack=0;rounded=1;fontSize=17;fontStyle=1;strokeWidth=2;resizeParent=0;resizeLast=1;shadow=0;dashed=0;align=center;fillColor=#fff2cc;strokeColor=#d6b656;" parent="1" vertex="1">
          <mxGeometry x="-390" y="26" width="310" height="70" as="geometry" />
        </mxCell>
        <mxCell id="wdhYre6bCpWcd9Iw9CnV-119" value="-   ConnectedFilterDrawer" style="align=left;strokeColor=none;fillColor=none;spacingLeft=4;fontSize=15;verticalAlign=top;resizable=0;rotatable=0;part=1;" parent="wdhYre6bCpWcd9Iw9CnV-118" vertex="1">
          <mxGeometry y="30" width="310" height="40" as="geometry" />
        </mxCell>
        <mxCell id="wdhYre6bCpWcd9Iw9CnV-123" style="edgeStyle=orthogonalEdgeStyle;rounded=0;orthogonalLoop=1;jettySize=auto;html=1;exitX=1;exitY=0.5;exitDx=0;exitDy=0;entryX=0;entryY=0.5;entryDx=0;entryDy=0;fontSize=17;startSize=26;" parent="1" source="wdhYre6bCpWcd9Iw9CnV-88" target="wdhYre6bCpWcd9Iw9CnV-118" edge="1">
          <mxGeometry relative="1" as="geometry" />
        </mxCell>
        <mxCell id="wdhYre6bCpWcd9Iw9CnV-124" value="connected-header.ts" style="swimlane;childLayout=stackLayout;horizontal=1;startSize=30;horizontalStack=0;rounded=1;fontSize=17;fontStyle=1;strokeWidth=2;resizeParent=0;resizeLast=1;shadow=0;dashed=0;align=center;fillColor=#fff2cc;strokeColor=#d6b656;" parent="1" vertex="1">
          <mxGeometry x="-390" y="106" width="310" height="70" as="geometry" />
        </mxCell>
        <mxCell id="wdhYre6bCpWcd9Iw9CnV-125" value="-   ConnectedHeader" style="align=left;strokeColor=none;fillColor=none;spacingLeft=4;fontSize=15;verticalAlign=top;resizable=0;rotatable=0;part=1;" parent="wdhYre6bCpWcd9Iw9CnV-124" vertex="1">
          <mxGeometry y="30" width="310" height="40" as="geometry" />
        </mxCell>
        <mxCell id="wdhYre6bCpWcd9Iw9CnV-127" style="edgeStyle=orthogonalEdgeStyle;rounded=0;orthogonalLoop=1;jettySize=auto;html=1;exitX=1;exitY=0.5;exitDx=0;exitDy=0;entryX=0;entryY=0.5;entryDx=0;entryDy=0;fontSize=15;startSize=26;" parent="1" source="wdhYre6bCpWcd9Iw9CnV-89" target="wdhYre6bCpWcd9Iw9CnV-124" edge="1">
          <mxGeometry relative="1" as="geometry" />
        </mxCell>
        <mxCell id="wdhYre6bCpWcd9Iw9CnV-128" value="connected-page-container.ts" style="swimlane;childLayout=stackLayout;horizontal=1;startSize=30;horizontalStack=0;rounded=1;fontSize=17;fontStyle=1;strokeWidth=2;resizeParent=0;resizeLast=1;shadow=0;dashed=0;align=center;fillColor=#fff2cc;strokeColor=#d6b656;" parent="1" vertex="1">
          <mxGeometry x="-390" y="193.5" width="310" height="70" as="geometry" />
        </mxCell>
        <mxCell id="wdhYre6bCpWcd9Iw9CnV-129" value="-   ConnectedPageContainer" style="align=left;strokeColor=none;fillColor=none;spacingLeft=4;fontSize=15;verticalAlign=top;resizable=0;rotatable=0;part=1;" parent="wdhYre6bCpWcd9Iw9CnV-128" vertex="1">
          <mxGeometry y="30" width="310" height="40" as="geometry" />
        </mxCell>
        <mxCell id="wdhYre6bCpWcd9Iw9CnV-132" style="edgeStyle=orthogonalEdgeStyle;rounded=0;orthogonalLoop=1;jettySize=auto;html=1;exitX=1;exitY=0.5;exitDx=0;exitDy=0;entryX=0;entryY=0.25;entryDx=0;entryDy=0;fontSize=15;startSize=26;" parent="1" source="wdhYre6bCpWcd9Iw9CnV-90" target="wdhYre6bCpWcd9Iw9CnV-129" edge="1">
          <mxGeometry relative="1" as="geometry">
            <Array as="points">
              <mxPoint x="-480" y="121" />
              <mxPoint x="-480" y="234" />
            </Array>
          </mxGeometry>
        </mxCell>
        <mxCell id="wdhYre6bCpWcd9Iw9CnV-133" style="edgeStyle=orthogonalEdgeStyle;rounded=0;orthogonalLoop=1;jettySize=auto;html=1;exitX=1;exitY=0.5;exitDx=0;exitDy=0;entryX=0;entryY=0.25;entryDx=0;entryDy=0;fontSize=15;startSize=26;" parent="1" source="wdhYre6bCpWcd9Iw9CnV-114" target="wdhYre6bCpWcd9Iw9CnV-131" edge="1">
          <mxGeometry relative="1" as="geometry">
            <Array as="points">
              <mxPoint x="-490" y="151" />
              <mxPoint x="-490" y="321" />
            </Array>
          </mxGeometry>
        </mxCell>
        <mxCell id="wdhYre6bCpWcd9Iw9CnV-134" style="edgeStyle=orthogonalEdgeStyle;rounded=0;orthogonalLoop=1;jettySize=auto;html=1;exitX=1;exitY=0.5;exitDx=0;exitDy=0;fontSize=15;startSize=26;" parent="1" source="wdhYre6bCpWcd9Iw9CnV-115" edge="1">
          <mxGeometry relative="1" as="geometry">
            <mxPoint x="-660" y="269.9999999999999" as="targetPoint" />
          </mxGeometry>
        </mxCell>
        <mxCell id="wdhYre6bCpWcd9Iw9CnV-130" value="connected-snackbar.ts" style="swimlane;childLayout=stackLayout;horizontal=1;startSize=30;horizontalStack=0;rounded=1;fontSize=17;fontStyle=1;strokeWidth=2;resizeParent=0;resizeLast=1;shadow=0;dashed=0;align=center;fillColor=#fff2cc;strokeColor=#d6b656;" parent="1" vertex="1">
          <mxGeometry x="-390" y="280.63" width="310" height="70" as="geometry" />
        </mxCell>
        <mxCell id="wdhYre6bCpWcd9Iw9CnV-131" value="- ConnectedSnackbar" style="align=left;strokeColor=none;fillColor=none;spacingLeft=4;fontSize=15;verticalAlign=top;resizable=0;rotatable=0;part=1;" parent="wdhYre6bCpWcd9Iw9CnV-130" vertex="1">
          <mxGeometry y="30" width="310" height="40" as="geometry" />
        </mxCell>
        <mxCell id="wdhYre6bCpWcd9Iw9CnV-137" value="filter-drawer.tsx" style="swimlane;fontStyle=0;childLayout=stackLayout;horizontal=1;startSize=26;horizontalStack=0;resizeParent=1;resizeParentMax=0;resizeLast=0;collapsible=1;marginBottom=0;align=center;fontSize=14;fillColor=#fff2cc;strokeColor=#d6b656;" parent="1" vertex="1">
          <mxGeometry x="-820" y="270" width="290" height="116" as="geometry">
            <mxRectangle x="-70" y="90" width="120" height="26" as="alternateBounds" />
          </mxGeometry>
        </mxCell>
        <mxCell id="wdhYre6bCpWcd9Iw9CnV-138" value="BEMHelper" style="text;strokeColor=#36393d;fillColor=#eeeeee;spacingLeft=4;spacingRight=4;overflow=hidden;rotatable=0;points=[[0,0.5],[1,0.5]];portConstraint=eastwest;fontSize=12;" parent="wdhYre6bCpWcd9Iw9CnV-137" vertex="1">
          <mxGeometry y="26" width="290" height="30" as="geometry" />
        </mxCell>
        <mxCell id="wdhYre6bCpWcd9Iw9CnV-139" value="ConnectedFilterItemAutocompleteA" style="text;strokeColor=#36393d;fillColor=#eeeeee;spacingLeft=4;spacingRight=4;overflow=hidden;rotatable=0;points=[[0,0.5],[1,0.5]];portConstraint=eastwest;fontSize=12;" parent="wdhYre6bCpWcd9Iw9CnV-137" vertex="1">
          <mxGeometry y="56" width="290" height="30" as="geometry" />
        </mxCell>
        <mxCell id="wdhYre6bCpWcd9Iw9CnV-140" value="ConnectedFilterItemAutocompleteB" style="text;strokeColor=#36393d;fillColor=#eeeeee;spacingLeft=4;spacingRight=4;overflow=hidden;rotatable=0;points=[[0,0.5],[1,0.5]];portConstraint=eastwest;fontSize=12;" parent="wdhYre6bCpWcd9Iw9CnV-137" vertex="1">
          <mxGeometry y="86" width="290" height="30" as="geometry" />
        </mxCell>
        <mxCell id="wdhYre6bCpWcd9Iw9CnV-143" value="bem-helper.ts" style="swimlane;childLayout=stackLayout;horizontal=1;startSize=30;horizontalStack=0;rounded=1;fontSize=17;fontStyle=1;strokeWidth=2;resizeParent=0;resizeLast=1;shadow=0;dashed=0;align=center;fillColor=#ffcccc;strokeColor=#36393d;" parent="1" vertex="1">
          <mxGeometry x="-380" y="400" width="240" height="70" as="geometry" />
        </mxCell>
        <mxCell id="wdhYre6bCpWcd9Iw9CnV-144" value=" - BEMHelper" style="align=left;strokeColor=none;fillColor=none;spacingLeft=4;fontSize=15;verticalAlign=top;resizable=0;rotatable=0;part=1;" parent="wdhYre6bCpWcd9Iw9CnV-143" vertex="1">
          <mxGeometry y="30" width="240" height="40" as="geometry" />
        </mxCell>
        <mxCell id="wdhYre6bCpWcd9Iw9CnV-149" value="connected-filter-item-autocomplete-a.tsx" style="swimlane;fontStyle=0;childLayout=stackLayout;horizontal=1;startSize=26;horizontalStack=0;resizeParent=1;resizeParentMax=0;resizeLast=0;collapsible=1;marginBottom=0;align=center;fontSize=14;fillColor=#ffcccc;strokeColor=#36393d;" parent="1" vertex="1">
          <mxGeometry x="-405" y="492" width="290" height="116" as="geometry">
            <mxRectangle x="-70" y="90" width="120" height="26" as="alternateBounds" />
          </mxGeometry>
        </mxCell>
        <mxCell id="wdhYre6bCpWcd9Iw9CnV-150" value="Action" style="text;strokeColor=#36393d;fillColor=#eeeeee;spacingLeft=4;spacingRight=4;overflow=hidden;rotatable=0;points=[[0,0.5],[1,0.5]];portConstraint=eastwest;fontSize=12;" parent="wdhYre6bCpWcd9Iw9CnV-149" vertex="1">
          <mxGeometry y="26" width="290" height="30" as="geometry" />
        </mxCell>
        <mxCell id="wdhYre6bCpWcd9Iw9CnV-151" value="ConnectedFilterItemAutocompleteA" style="text;strokeColor=#36393d;fillColor=#eeeeee;spacingLeft=4;spacingRight=4;overflow=hidden;rotatable=0;points=[[0,0.5],[1,0.5]];portConstraint=eastwest;fontSize=12;" parent="wdhYre6bCpWcd9Iw9CnV-149" vertex="1">
          <mxGeometry y="56" width="290" height="30" as="geometry" />
        </mxCell>
        <mxCell id="wdhYre6bCpWcd9Iw9CnV-152" value="ConnectedFilterItemAutocompleteB" style="text;strokeColor=#36393d;fillColor=#eeeeee;spacingLeft=4;spacingRight=4;overflow=hidden;rotatable=0;points=[[0,0.5],[1,0.5]];portConstraint=eastwest;fontSize=12;" parent="wdhYre6bCpWcd9Iw9CnV-149" vertex="1">
          <mxGeometry y="86" width="290" height="30" as="geometry" />
        </mxCell>
        <mxCell id="wdhYre6bCpWcd9Iw9CnV-155" style="edgeStyle=orthogonalEdgeStyle;rounded=0;orthogonalLoop=1;jettySize=auto;html=1;exitX=1;exitY=0.5;exitDx=0;exitDy=0;entryX=0;entryY=0.5;entryDx=0;entryDy=0;fontSize=15;startSize=26;" parent="1" source="wdhYre6bCpWcd9Iw9CnV-138" target="wdhYre6bCpWcd9Iw9CnV-144" edge="1">
          <mxGeometry relative="1" as="geometry">
            <Array as="points">
              <mxPoint x="-500" y="311" />
              <mxPoint x="-500" y="450" />
            </Array>
          </mxGeometry>
        </mxCell>
        <mxCell id="wdhYre6bCpWcd9Iw9CnV-156" style="edgeStyle=orthogonalEdgeStyle;rounded=0;orthogonalLoop=1;jettySize=auto;html=1;exitX=1;exitY=0.5;exitDx=0;exitDy=0;entryX=0;entryY=0.5;entryDx=0;entryDy=0;fontSize=15;startSize=26;" parent="1" source="wdhYre6bCpWcd9Iw9CnV-139" target="wdhYre6bCpWcd9Iw9CnV-151" edge="1">
          <mxGeometry relative="1" as="geometry">
            <Array as="points">
              <mxPoint x="-510" y="341" />
              <mxPoint x="-510" y="581" />
            </Array>
          </mxGeometry>
        </mxCell>
        <mxCell id="wdhYre6bCpWcd9Iw9CnV-157" value="index.ts" style="swimlane;childLayout=stackLayout;horizontal=1;startSize=30;horizontalStack=0;rounded=1;fontSize=17;fontStyle=1;strokeWidth=2;resizeParent=0;resizeLast=1;shadow=0;dashed=0;align=center;fillColor=#cdeb8b;strokeColor=#36393d;" parent="1" vertex="1">
          <mxGeometry y="498" width="310" height="70" as="geometry" />
        </mxCell>
        <mxCell id="wdhYre6bCpWcd9Iw9CnV-158" value="- ConnectedSnackbar" style="align=left;strokeColor=none;fillColor=none;spacingLeft=4;fontSize=15;verticalAlign=top;resizable=0;rotatable=0;part=1;" parent="wdhYre6bCpWcd9Iw9CnV-157" vertex="1">
          <mxGeometry y="30" width="310" height="40" as="geometry" />
        </mxCell>
        <mxCell id="wdhYre6bCpWcd9Iw9CnV-159" style="edgeStyle=orthogonalEdgeStyle;rounded=0;orthogonalLoop=1;jettySize=auto;html=1;exitX=1;exitY=0.5;exitDx=0;exitDy=0;entryX=0;entryY=0.5;entryDx=0;entryDy=0;fontSize=15;startSize=26;" parent="1" source="wdhYre6bCpWcd9Iw9CnV-150" target="wdhYre6bCpWcd9Iw9CnV-157" edge="1">
          <mxGeometry relative="1" as="geometry" />
        </mxCell>
        <mxCell id="5Zs5lwEem7XmEE8JJuJz-1" value="&lt;font style=&quot;font-size: 31px&quot;&gt;Hello&lt;br&gt;from Meaw&lt;/font&gt;" style="rounded=0;whiteSpace=wrap;html=1;" vertex="1" parent="1">
          <mxGeometry x="160" y="136" width="120" height="60" as="geometry" />
        </mxCell>
      </root>
    </mxGraphModel>
  </diagram>
</mxfile>
